Coordinates
version=1
nRows=14
nColumns=24
inDegrees=yes

Units are S.I. units (second, meters, Newtons, ...)
Angles are in degrees.

endheader
time	pelvis_tilt	pelvis_list	pelvis_rotation	pelvis_tx	pelvis_ty	pelvis_tz	hip_flexion_r	hip_adduction_r	hip_rotation_r	knee_angle_r	ankle_angle_r	subtalar_angle_r	mtp_angle_r	hip_flexion_l	hip_adduction_l	hip_rotation_l	knee_angle_l	ankle_angle_l	subtalar_angle_l	mtp_angle_l	lumbar_extension	lumbar_bending	lumbar_rotation
      2.54500000	     25.94129446	     -0.22814262	     -1.73314146	      0.76305954	      1.02136059	      0.02251422	    -28.79904945	     -4.03280443	     -7.84492263	    -41.29471083	     -4.27550738	     -5.07109281	     55.96184924	     -6.40343672	      0.92552413	     -6.57291424	    -21.01427957	      4.37361544	     -7.33547054	      4.30347601	    -39.98662081	     -4.54566683	      2.30583623
      2.55000000	     25.89348306	     -0.18705657	     -2.09650253	      0.76826478	      1.02166444	      0.02237931	    -27.83958202	     -4.40340035	     -7.47812198	    -42.81160805	     -5.06129080	     -5.77302188	     55.78896240	     -6.62493138	      1.04547959	     -6.91912160	    -21.18988659	      4.86292955	     -7.20008733	      4.26105387	    -39.89809420	     -4.81870842	      2.51165731
      2.55500000	     25.86802819	     -0.14144393	     -2.46505689	      0.77341192	      1.02203570	      0.02228760	    -26.90821428	     -4.75420612	     -7.08148769	    -44.26337256	     -5.69014005	     -6.51107812	     55.57411678	     -6.91171363	      1.17547834	     -7.25624627	    -21.27617744	      5.30439530	     -7.03880732	      4.21761936	    -39.83455048	     -5.09900022	      2.71935252
      2.56000000	     25.82841234	     -0.16209952	     -2.80828835	      0.77844493	      1.02240984	      0.02224911	    -25.95896712	     -4.99427749	     -6.65149175	    -45.65267657	     -6.21146622	     -7.29016057	     55.24331698	     -7.16814225	      1.21337788	     -7.66261614	    -21.39257741	      5.79094306	     -6.82077331	      4.14956300	    -39.76551786	     -5.30773441	      2.94869957
      2.56500000	     25.82316737	     -0.17401768	     -3.14522152	      0.78342680	      1.02286865	      0.02226424	    -25.05451724	     -5.21142384	     -6.20575723	    -46.99377733	     -6.44511196	     -7.85558338	     52.76385320	     -7.49636371	      1.25879640	     -8.07008081	    -21.44176448	      6.36872547	     -6.44311640	      3.07688808	    -39.73628215	     -5.52344350	      3.14553214
      2.57000000	     25.76814465	     -0.20212285	     -3.45214374	      0.78828513	      1.02328340	      0.02224619	    -24.09210432	     -5.38034941	     -5.78435327	    -48.26706891	     -6.67200174	     -8.66285029	     52.57989116	     -7.76602318	      1.29257492	     -8.41013455	    -21.47026049	      6.76128010	     -6.27196814	      3.06870295	    -39.66790821	     -5.70184003	      3.35199351
      2.57500000	     25.72943360	     -0.26397919	     -3.74011764	      0.79306076	      1.02374996	      0.02230843	    -23.15611937	     -5.47394631	     -5.34941207	    -49.46621571	     -6.79425241	     -9.47579832	     52.24118454	     -8.06031032	      1.27548102	     -8.77832773	    -21.48606448	      7.17279222	     -5.99130235	      3.04515129	    -39.62377446	     -5.84625911	      3.54879975
      2.58000000	     25.73224310	     -0.31717180	     -4.00698385	      0.79779119	      1.02429635	      0.02238896	    -22.27901937	     -5.55107977	     -4.94274051	    -50.61081906	     -6.63258013	    -10.05490361	     49.76523483	     -8.41874932	      1.26739608	     -9.13579902	    -21.46102949	      7.62000200	     -5.64151914	      2.42017675	    -39.62869663	     -5.98829572	      3.71396934
      2.58500000	     25.66127737	     -0.37921152	     -4.23846770	      0.80238922	      1.02478149	      0.02243452	    -21.31148684	     -5.58461751	     -4.56549053	    -51.69536512	     -6.58407754	    -10.83528333	     49.59382842	     -8.67797469	      1.24978712	     -9.41012051	    -21.44389051	      7.94510327	     -5.43824386	      2.42715215	    -39.57105587	     -6.09513376	      3.87723682
      2.59000000	     25.61576195	     -0.46876164	     -4.43704450	      0.80689602	      1.02529612	      0.02252821	    -20.38486453	     -5.55317861	     -4.20779542	    -52.70408932	     -6.45244564	    -11.59850574	     49.29043972	     -8.96001183	      1.18888306	     -9.68719493	    -21.43427464	      8.29374780	     -5.16527288	      2.42476212	    -39.55214272	     -6.16433703	      4.01725015
      2.59500000	     25.55324705	     -0.58369866	     -4.57402583	      0.81136023	      1.02583434	      0.02263494	    -19.46508076	     -5.44398896	     -3.89428246	    -53.63298693	     -6.17102579	    -12.28281581	     48.45034787	     -9.21979660	      1.07917965	     -9.92042156	    -21.42742523	      8.63988831	     -4.78188416	      2.30169598	    -39.52509012	     -6.17945028	      4.12210249
      2.60000000	     25.50276814	     -0.64173697	     -4.74601820	      0.81576525	      1.02638140	      0.02270152	    -18.53590173	     -5.41878653	     -3.60227996	    -54.52707685	     -6.01154428	    -12.94144003	     48.06643816	     -9.50885833	      1.06875671	    -10.10759800	    -21.36346398	      8.91838955	     -4.67511484	      2.25960286	    -39.51136272	     -6.25601207	      4.22793628
      2.60500000	     25.44833836	     -0.69687547	     -4.84921436	      0.82016991	      1.02695817	      0.02279262	    -17.63875659	     -5.34974634	     -3.37889376	    -55.32630673	     -5.75123921	    -13.57916491	     47.74366009	     -9.79509362	      1.03580747	    -10.25307049	    -21.28747750	      9.14134480	     -4.44288279	      2.23724702	    -39.50078834	     -6.30388108	      4.22867158
      2.61000000	     25.38529613	     -0.79925159	     -4.90969226	      0.82445751	      1.02750858	      0.02284565	    -16.73284197	     -5.20228447	     -3.17617679	    -56.09294620	     -5.26348938	    -13.85698155	     44.90489706	    -10.04162374	      0.94121059	    -10.36208227	    -21.27244815	      9.51068057	     -4.19057493	      1.61155917	    -39.49736450	     -6.28070100	      4.27514726
